# xmcd CD database file
#
# Track frame offsets:
#	150
#	50720
#	91257
#	134732
#	160125
#	204077
#	236702
#
# Disc length: 4012 seconds
#
# Revision: 0
# Processed by: cddbd v1.5.2PL0 Copyright (c) Steve Scherf et al.
# Submitted via: CDex 1.51
#
DISCID=5c0faa07
DTITLE=Lawton, Tom - Retrospective-Debut Disc 2
DYEAR=2004
DGENRE=Jazz
TTITLE0=Placebo Effect
TTITLE1=Titled
TTITLE2=JuJu
TTITLE3=Cameo
TTITLE4=Delusions of Adequacy
TTITLE5=Island
TTITLE6=Archetypal Archives
EXTD=YEAR: 2004
EXTT0=
EXTT1=
EXTT2=
EXTT3=
EXTT4=
EXTT5=
EXTT6=
PLAYORDER=
